<svg xmlns="http://www.w3.org/2000/svg" style="display:none">
  <symbol id="icon-overview" viewBox="0 0 24 24" fill="none" stroke="currentColor" stroke-width="1.8" stroke-linecap="round" stroke-linejoin="round"><rect x="4" y="4" width="6" height="6" rx="1"/><rect x="14" y="4" width="6" height="6" rx="1"/><rect x="4" y="14" width="6" height="6" rx="1"/><rect x="14" y="14" width="6" height="6" rx="1"/></symbol>
  <symbol id="icon-folder" viewBox="0 0 24 24" fill="none" stroke="currentColor" stroke-width="1.8" stroke-linecap="round" stroke-linejoin="round"><path d="M3 7.5h6l2-2h4l2 2h4v10.5a2 2 0 0 1-2 2H5a2 2 0 0 1-2-2Z"/><path d="M3 10h18"/></symbol>
  <symbol id="icon-calendar" viewBox="0 0 24 24" fill="none" stroke="currentColor" stroke-width="1.8" stroke-linecap="round" stroke-linejoin="round"><rect x="3" y="5" width="18" height="16" rx="2"/><path d="M7 3v4M17 3v4M3 10h18M7 14h.01M12 14h.01M17 14h.01M7 18h.01M12 18h.01"/></symbol>
  <symbol id="icon-timeline" viewBox="0 0 24 24" fill="none" stroke="currentColor" stroke-width="1.8" stroke-linecap="round" stroke-linejoin="round"><circle cx="6" cy="12" r="2"/><circle cx="18" cy="6" r="2"/><circle cx="18" cy="18" r="2"/><path d="M8 11l8-4M8 13l8 4"/></symbol>
  <symbol id="icon-completed" viewBox="0 0 24 24" fill="none" stroke="currentColor" stroke-width="1.8" stroke-linecap="round" stroke-linejoin="round"><circle cx="12" cy="12" r="9"/><path d="m8 12 2.5 2.5L16.5 9"/></symbol>
  <symbol id="icon-archive" viewBox="0 0 24 24" fill="none" stroke="currentColor" stroke-width="1.8" stroke-linecap="round" stroke-linejoin="round"><path d="M4 7h16v13H4zM3 4h18v4H3zM9 12h6"/></symbol>
  <symbol id="icon-settings" viewBox="0 0 24 24" fill="none" stroke="currentColor" stroke-width="1.8" stroke-linecap="round" stroke-linejoin="round"><circle cx="12" cy="12" r="3"/><path d="M19.4 15a1.8 1.8 0 0 0 .36 2l.04.04-2.8 2.8-.04-.04a1.8 1.8 0 0 0-2-.36 1.8 1.8 0 0 0-1.1 1.65V21H10v-.07A1.8 1.8 0 0 0 8.9 19.3a1.8 1.8 0 0 0-2 .36l-.04.04-2.8-2.8.04-.04a1.8 1.8 0 0 0 .36-2A1.8 1.8 0 0 0 2.8 13H2.7V9h.08A1.8 1.8 0 0 0 4.4 7.9a1.8 1.8 0 0 0-.36-2L4 5.86l2.8-2.8.04.04a1.8 1.8 0 0 0 2 .36A1.8 1.8 0 0 0 10 1.8V1.7h4v.08a1.8 1.8 0 0 0 1.1 1.65 1.8 1.8 0 0 0 2-.36l.04-.04 2.8 2.8-.04.04a1.8 1.8 0 0 0-.36 2A1.8 1.8 0 0 0 21.2 9h.1v4h-.08A1.8 1.8 0 0 0 19.4 15Z"/></symbol>
  <symbol id="icon-logout" viewBox="0 0 24 24" fill="none" stroke="currentColor" stroke-width="1.8" stroke-linecap="round" stroke-linejoin="round"><path d="M10 5H5a2 2 0 0 0-2 2v10a2 2 0 0 0 2 2h5M14 8l4 4-4 4M18 12H8"/></symbol>
  <symbol id="icon-clock" viewBox="0 0 24 24" fill="none" stroke="currentColor" stroke-width="1.8" stroke-linecap="round" stroke-linejoin="round"><circle cx="12" cy="12" r="9"/><path d="M12 7v5l3 2"/></symbol>
  <symbol id="icon-check-circle" viewBox="0 0 24 24" fill="none" stroke="currentColor" stroke-width="1.8" stroke-linecap="round" stroke-linejoin="round"><circle cx="12" cy="12" r="9"/><path d="m8 12 2.5 2.5L16.5 9"/></symbol>
  <symbol id="icon-warning" viewBox="0 0 24 24" fill="none" stroke="currentColor" stroke-width="1.8" stroke-linecap="round" stroke-linejoin="round"><path d="M10.3 4.3 2.8 18a2 2 0 0 0 1.75 3h14.9a2 2 0 0 0 1.75-3L13.7 4.3a2 2 0 0 0-3.4 0Z"/><path d="M12 9v4M12 17h.01"/></symbol>
  <symbol id="icon-document" viewBox="0 0 24 24" fill="none" stroke="currentColor" stroke-width="1.8" stroke-linecap="round" stroke-linejoin="round"><path d="M6 3h8l4 4v14H6zM14 3v5h5M9 13h6M9 17h6"/></symbol>
  <symbol id="icon-pie-chart" viewBox="0 0 24 24" fill="none" stroke="currentColor" stroke-width="1.8" stroke-linecap="round" stroke-linejoin="round"><path d="M12 3v9h9A9 9 0 1 1 12 3Z"/><path d="M15 3.5A7 7 0 0 1 20.5 9H15Z"/></symbol>
  <symbol id="icon-handshake" viewBox="0 0 24 24" fill="none" stroke="currentColor" stroke-width="1.8" stroke-linecap="round" stroke-linejoin="round"><path d="m8 12 3-3 3 3M3 11l4-4 4 2M21 11l-4-4-4 2M7 14l3 3a2 2 0 0 0 3 0l4-4M5 17l2-2M19 17l-2-2"/></symbol>
  <symbol id="icon-users" viewBox="0 0 24 24" fill="none" stroke="currentColor" stroke-width="1.8" stroke-linecap="round" stroke-linejoin="round"><circle cx="9" cy="8" r="3"/><circle cx="17" cy="9" r="2"/><path d="M3 20v-2a5 5 0 0 1 10 0v2M14 15a4 4 0 0 1 7 3v2"/></symbol>
  <symbol id="icon-globe" viewBox="0 0 24 24" fill="none" stroke="currentColor" stroke-width="1.8" stroke-linecap="round" stroke-linejoin="round"><circle cx="12" cy="12" r="9"/><path d="M3 12h18M12 3a15 15 0 0 1 0 18M12 3a15 15 0 0 0 0 18"/></symbol>
  <symbol id="icon-bell" viewBox="0 0 24 24" fill="none" stroke="currentColor" stroke-width="1.8" stroke-linecap="round" stroke-linejoin="round"><path d="M18 8a6 6 0 0 0-12 0c0 7-3 7-3 9h18c0-2-3-2-3-9M10 21h4"/></symbol>
  <symbol id="icon-plus" viewBox="0 0 24 24" fill="none" stroke="currentColor" stroke-width="1.8" stroke-linecap="round" stroke-linejoin="round"><path d="M12 5v14M5 12h14"/></symbol>
  <symbol id="icon-chevron-right" viewBox="0 0 24 24" fill="none" stroke="currentColor" stroke-width="1.8" stroke-linecap="round" stroke-linejoin="round"><path d="m9 18 6-6-6-6"/></symbol>
  <symbol id="icon-chevron-left" viewBox="0 0 24 24" fill="none" stroke="currentColor" stroke-width="1.8" stroke-linecap="round" stroke-linejoin="round"><path d="m15 18-6-6 6-6"/></symbol>
  <symbol id="icon-chevron-down" viewBox="0 0 24 24" fill="none" stroke="currentColor" stroke-width="1.8" stroke-linecap="round" stroke-linejoin="round"><path d="m6 9 6 6 6-6"/></symbol>
  <symbol id="icon-search" viewBox="0 0 24 24" fill="none" stroke="currentColor" stroke-width="1.8" stroke-linecap="round" stroke-linejoin="round"><circle cx="11" cy="11" r="7"/><path d="m20 20-4-4"/></symbol>
  <symbol id="icon-filter" viewBox="0 0 24 24" fill="none" stroke="currentColor" stroke-width="1.8" stroke-linecap="round" stroke-linejoin="round"><path d="M3 5h18l-7 8v6l-4 2v-8Z"/></symbol>
  <symbol id="icon-edit" viewBox="0 0 24 24" fill="none" stroke="currentColor" stroke-width="1.8" stroke-linecap="round" stroke-linejoin="round"><path d="M4 20h4L20 8l-4-4L4 16zM14 6l4 4"/></symbol>
  <symbol id="icon-duplicate" viewBox="0 0 24 24" fill="none" stroke="currentColor" stroke-width="1.8" stroke-linecap="round" stroke-linejoin="round"><rect x="8" y="8" width="12" height="12" rx="2"/><path d="M16 8V5a2 2 0 0 0-2-2H5a2 2 0 0 0-2 2v9a2 2 0 0 0 2 2h3"/></symbol>
  <symbol id="icon-upload" viewBox="0 0 24 24" fill="none" stroke="currentColor" stroke-width="1.8" stroke-linecap="round" stroke-linejoin="round"><path d="M12 16V4M7 9l5-5 5 5M4 16v4h16v-4"/></symbol>
  <symbol id="icon-comment" viewBox="0 0 24 24" fill="none" stroke="currentColor" stroke-width="1.8" stroke-linecap="round" stroke-linejoin="round"><path d="M4 4h16v12H8l-4 4Z"/><path d="M8 8h8M8 12h5"/></symbol>
  <symbol id="icon-undo" viewBox="0 0 24 24" fill="none" stroke="currentColor" stroke-width="1.8" stroke-linecap="round" stroke-linejoin="round"><path d="M9 8 4 12l5 4M5 12h8a6 6 0 0 1 6 6"/></symbol>
  <symbol id="icon-redo" viewBox="0 0 24 24" fill="none" stroke="currentColor" stroke-width="1.8" stroke-linecap="round" stroke-linejoin="round"><path d="m15 8 5 4-5 4M19 12h-8a6 6 0 0 0-6 6"/></symbol>
  <symbol id="icon-milestone" viewBox="0 0 24 24" fill="none" stroke="currentColor" stroke-width="1.8" stroke-linecap="round" stroke-linejoin="round"><path d="m12 3 9 9-9 9-9-9Z"/></symbol>
  <symbol id="icon-dependency" viewBox="0 0 24 24" fill="none" stroke="currentColor" stroke-width="1.8" stroke-linecap="round" stroke-linejoin="round"><circle cx="5" cy="6" r="2"/><circle cx="19" cy="18" r="2"/><path d="M7 6h5a4 4 0 0 1 4 4v6M13 13l3 3 3-3"/></symbol>
  <symbol id="icon-priority" viewBox="0 0 24 24" fill="none" stroke="currentColor" stroke-width="1.8" stroke-linecap="round" stroke-linejoin="round"><path d="M5 21V4M5 5h12l-2 4 2 4H5"/></symbol>
  <symbol id="icon-lock" viewBox="0 0 24 24" fill="none" stroke="currentColor" stroke-width="1.8" stroke-linecap="round" stroke-linejoin="round"><rect x="4" y="10" width="16" height="11" rx="2"/><path d="M8 10V7a4 4 0 0 1 8 0v3M12 14v3"/></symbol>
  <symbol id="icon-user" viewBox="0 0 24 24" fill="none" stroke="currentColor" stroke-width="1.8" stroke-linecap="round" stroke-linejoin="round"><circle cx="12" cy="8" r="4"/><path d="M4 21a8 8 0 0 1 16 0"/></symbol>
  <symbol id="icon-eye" viewBox="0 0 24 24" fill="none" stroke="currentColor" stroke-width="1.8" stroke-linecap="round" stroke-linejoin="round"><path d="M2 12s4-7 10-7 10 7 10 7-4 7-10 7S2 12 2 12Z"/><circle cx="12" cy="12" r="3"/></symbol>
  <symbol id="icon-trash" viewBox="0 0 24 24" fill="none" stroke="currentColor" stroke-width="1.8" stroke-linecap="round" stroke-linejoin="round"><path d="M4 7h16M9 7V4h6v3M6 7l1 14h10l1-14M10 11v6M14 11v6"/></symbol>
  <symbol id="icon-more" viewBox="0 0 24 24" fill="none" stroke="currentColor" stroke-width="1.8" stroke-linecap="round" stroke-linejoin="round"><circle cx="5" cy="12" r="1" fill="currentColor" stroke="none"/><circle cx="12" cy="12" r="1" fill="currentColor" stroke="none"/><circle cx="19" cy="12" r="1" fill="currentColor" stroke="none"/></symbol>
</svg>
